<svg xmlns="http://www.w3.org/2000/svg" viewBox="0 0 1100 250" width="100%" height="100%">
  <defs>
    <!-- 背景底色 (纯白) -->
    <rect id="bg" width="1100" height="250" fill="#ffffff" />

    <!-- 机器人渐变色 -->
    <linearGradient id="robotBody" x1="0%" y1="0%" x2="0%" y2="100%">
      <stop offset="0%" stop-color="#e2e8f0" />
      <stop offset="100%" stop-color="#cbd5e1" />
    </linearGradient>
    <linearGradient id="robotScreen" x1="0%" y1="0%" x2="100%" y2="100%">
      <stop offset="0%" stop-color="#0ea5e9" />
      <stop offset="100%" stop-color="#0284c7" />
    </linearGradient>

    <!-- 柔和的阴影 -->
    <filter id="dropShadow" x="-10%" y="-10%" width="130%" height="130%">
      <feDropShadow dx="0" dy="4" stdDeviation="4" flood-opacity="0.1" />
    </filter>
  </defs>

  <!-- 1. 背景 -->
  <use href="#bg" />

  <!-- 2. 左侧：吉祥物/插画区域 -->
  <g transform="translate(40, 25)">
    
    <!-- 环绕的循环工作流线 -->
    <rect x="20" y="20" width="180" height="150" rx="30" fill="none" stroke="#e0e7ff" stroke-width="4" stroke-dasharray="10 6" />
    <path d="M 180 30 L 190 20 L 200 30" fill="none" stroke="#e0e7ff" stroke-width="4" stroke-linecap="round" stroke-linejoin="round" />

    <!-- 飘浮的多个文件元素 (代表 Batch) -->
    <!-- 文件 1 -->
    <g transform="translate(10, 50)" filter="url(#dropShadow)">
      <rect x="0" y="0" width="30" height="36" rx="4" fill="#ffffff" stroke="#cbd5e1" stroke-width="2"/>
      <line x1="6" y1="10" x2="24" y2="10" stroke="#f1502f" stroke-width="3" stroke-linecap="round"/>
      <line x1="6" y1="18" x2="18" y2="18" stroke="#94a3b8" stroke-width="2" stroke-linecap="round"/>
    </g>
    <!-- 文件 2 -->
    <g transform="translate(170, 80)" filter="url(#dropShadow)">
      <rect x="0" y="0" width="30" height="36" rx="4" fill="#ffffff" stroke="#cbd5e1" stroke-width="2"/>
      <line x1="6" y1="10" x2="24" y2="10" stroke="#10b981" stroke-width="3" stroke-linecap="round"/>
      <line x1="6" y1="18" x2="20" y2="18" stroke="#94a3b8" stroke-width="2" stroke-linecap="round"/>
    </g>

    <!-- 中间的机器人吉祥物 -->
    <g transform="translate(70, 45)" filter="url(#dropShadow)">
      <!-- 机器人的天线 -->
      <line x1="40" y1="0" x2="40" y2="-15" stroke="#94a3b8" stroke-width="4" stroke-linecap="round" />
      <circle cx="40" cy="-15" r="5" fill="#f1502f" />
      
      <!-- 机器人的手 (伸向左右抓取文件) -->
      <path d="M 10 50 Q -10 50 -15 35" fill="none" stroke="#94a3b8" stroke-width="8" stroke-linecap="round" />
      <path d="M 70 50 Q 90 50 95 65" fill="none" stroke="#94a3b8" stroke-width="8" stroke-linecap="round" />

      <!-- 机器人的头 -->
      <rect x="10" y="0" width="60" height="46" rx="16" fill="url(#robotBody)" stroke="#94a3b8" stroke-width="2" />
      
      <!-- 机器人的脸 (屏幕) -->
      <rect x="15" y="6" width="50" height="34" rx="10" fill="url(#robotScreen)" />
      
      <!-- 可爱的表情 ^^ -->
      <path d="M 25 20 Q 30 15 35 20" fill="none" stroke="#ffffff" stroke-width="3" stroke-linecap="round" />
      <path d="M 45 20 Q 50 15 55 20" fill="none" stroke="#ffffff" stroke-width="3" stroke-linecap="round" />
      <!-- 笑脸嘴巴 -->
      <path d="M 35 30 Q 40 35 45 30" fill="none" stroke="#ffffff" stroke-width="3" stroke-linecap="round" />

      <!-- 机器人的身体 -->
      <rect x="25" y="50" width="30" height="35" rx="8" fill="url(#robotBody)" stroke="#94a3b8" stroke-width="2" />
      <!-- 胸前的打包图标 -->
      <rect x="32" y="60" width="16" height="12" rx="2" fill="#0284c7" />
    </g>

    <!-- 底部的树根/Git节点 -->
    <path d="M 110 140 L 110 160 Q 110 180 80 180" fill="none" stroke="#94a3b8" stroke-width="3" stroke-linecap="round" />
    <circle cx="80" cy="180" r="5" fill="#f1502f" />
    <path d="M 110 140 L 110 170 Q 110 190 140 190" fill="none" stroke="#94a3b8" stroke-width="3" stroke-linecap="round" />
    <circle cx="140" cy="190" r="5" fill="#10b981" />
  </g>

  <!-- 3. 右侧：排版区域 -->
  <!-- 重新调整 x 坐标，使得文字块整体居中偏左，且右侧不会溢出 -->
  <g transform="translate(300, 115)">
    <!-- A. 巨大的主标题 -->
    <!-- 减小了一点点字号(76)以适应完整的单词长度 -->
    <text x="0" y="0" font-family="system-ui, -apple-system, sans-serif" font-size="76" font-weight="800" fill="#1e3a5f" letter-spacing="-1">
      git-batch-commit
    </text>

    <!-- B. 横向分割线 -->
    <!-- 调整长度为 740，恰好与文本右边缘对齐 -->
    <line x1="5" y1="25" x2="740" y2="25" stroke="#6082a6" stroke-width="4" stroke-linecap="round" />

    <!-- C. 副标题 -->
    <text x="5" y="68" font-family="system-ui, -apple-system, sans-serif" font-size="32" font-weight="500" fill="#334155" letter-spacing="0">
      Automated Multi-File Commit Engine
    </text>
  </g>
</svg>